<?xml version="1.0" encoding="utf-8" ?>
<svg xmlns="http://www.w3.org/2000/svg" xmlns:xlink="http://www.w3.org/1999/xlink" width="640" height="320">
	<path fill="#28E5C2" transform="scale(0.3125 0.3125)" d="M381.045 271.235L381.991 270.157C387.539 275.106 417.267 333.21 423.771 344.929L502.801 485.823L534.761 542.561C540.703 553.013 547.258 563.243 552.432 574.1C540.025 565.756 526.328 559.141 513.234 551.943Q478.79 532.87 444.103 514.242C435.105 496.814 424.084 480.313 414.14 463.404C403.08 444.601 392.972 425.268 381.381 406.769C382.514 395.652 383.005 278.713 381.045 271.235Z"/>
	<path fill="#c5c5c5" transform="scale(0.3125 0.3125)" d="M381.045 271.235C383.005 278.713 382.514 395.652 381.381 406.769C367.448 423.675 356.934 445.539 345.77 464.481C336.538 480.143 325.383 496.324 318.07 512.939L211.182 571.329C269.179 472.136 323.721 370.831 381.045 271.235Z"/>
	<path fill="#c5c5c5" transform="scale(0.3125 0.3125)" d="M252.532 314.248Q263.886 301.75 275.674 289.659C282.673 292.78 294.098 307.829 299.579 314.029C291.595 321.608 284.197 329.779 276.708 337.84C269.469 334.483 258.3 320.263 252.532 314.248Z"/>
	<path fill="#c5c5c5" transform="scale(0.3125 0.3125)" d="M1297.38 493.12C1301.14 487.09 1299.19 407.295 1299.19 394.5Q1331.26 394.063 1363.33 394.483C1363.82 395.373 1364.3 396.347 1364.52 397.344C1366.42 405.844 1364.81 433.812 1364.8 443.862L1364.72 576.959C1364.73 587.855 1366.97 647.339 1363.1 653.874L1300.17 653.93C1300.71 653.058 1301.1 652.278 1301.34 651.27C1303.31 642.677 1302.55 556.482 1300.05 552.096L1213.13 552.111C1213.53 552.709 1213.85 553.292 1214.13 553.963C1215.53 557.353 1215.26 637.208 1214.69 645.936C1214.58 647.582 1214.1 649.018 1213.44 650.515L1213.86 652.946C1207.08 656.134 1158.07 653.901 1147.33 653.849C1147.41 653.689 1147.49 653.528 1147.57 653.37C1148.02 652.505 1148.48 651.599 1148.69 650.639C1150.07 644.195 1149.02 635.438 1149.03 628.715L1149.05 577.191L1149.12 462.828C1149.14 442.345 1149.74 421.663 1149.03 401.208C1148.95 398.776 1148.65 396.998 1147.41 394.874Q1180.44 394.715 1213.47 394.908C1213.95 395.664 1214.42 396.488 1214.66 397.361C1216.42 403.873 1215.88 478.647 1215.02 488.49C1214.86 490.298 1214.4 491.64 1213.52 493.215L1297.38 493.12ZM1353.87 404.067C1349.03 401.416 1314.15 403.084 1306.27 403.132C1312.07 414.507 1304.12 481.777 1308.92 492.584C1309.9 492.81 1310.77 493.089 1311.78 492.998C1325.56 493.922 1339.84 493.159 1353.68 493.127C1354.32 492.042 1354.83 491.045 1355.1 489.804C1356.1 485.181 1356.39 409.435 1355.51 406.549C1355.29 405.845 1354.31 404.725 1353.87 404.067ZM1205.21 408.989L1207.05 405.488L1206.26 403.772C1190.93 401.333 1171.4 403.272 1155.7 403.338C1161.8 416.687 1153.03 490.213 1158.84 492.498C1160.02 492.965 1159.54 492.85 1160.81 492.836C1175.56 493.55 1190.6 492.981 1205.38 492.997C1206 492.082 1206.53 491.09 1206.75 489.998C1208.41 481.906 1207.96 423.009 1206.97 413.369C1206.8 411.676 1206.18 410.365 1205.21 408.989Z"/>
	<path fill="#c5c5c5" transform="scale(0.3125 0.3125)" d="M1778.69 403.241Q1733.59 402.895 1688.48 403.13C1691.86 408.582 1690.68 522.298 1690.51 537.414C1690.47 540.661 1688.93 552.478 1693.28 552.996C1693.78 553.055 1693.92 552.984 1694.35 552.869C1707.61 553.822 1721.33 553.18 1734.65 553.211C1735.19 552.394 1735.63 551.556 1735.92 550.611C1737.42 545.765 1736.95 458.441 1736.35 448.056C1736.25 446.223 1735.76 444.797 1734.89 443.19C1753.47 443.208 1772.16 443.63 1790.72 442.939C1795.58 443.011 1812.54 441.791 1815.7 445.027C1817.64 449.829 1817.97 497.477 1816.08 502.063C1815.79 502.771 1815.46 503.382 1815.04 504.014C1801.47 503.997 1757.33 502.191 1746.84 504.737C1745.88 506.433 1745.06 508.072 1744.38 509.895C1747.16 516.641 1747.28 536.923 1744.89 544.121C1746.77 551.935 1746.06 636.617 1745.1 649.247C1744.97 650.883 1744.58 652.179 1743.74 653.612C1743.65 653.771 1743.55 653.922 1743.45 654.078L1679.87 653.978C1681 651.911 1681.22 650.374 1681.28 648.067C1682.95 584.335 1681.37 520.261 1681.18 456.496C1681.14 445.169 1682.72 403.45 1680.72 396.684C1680.48 395.841 1680.06 395.062 1679.6 394.316L1835.73 394.207C1841.67 397.36 1868.05 421.888 1870.21 427.445C1870.34 427.776 1870.39 428.305 1870.44 428.626C1871.16 429.904 1871.66 431.111 1871.77 432.585C1872.63 444.861 1873.47 523.289 1871.5 531.59C1871.35 532.191 1871.14 532.775 1870.9 533.346C1868.94 538.691 1852.22 554.862 1847.21 557.297C1853.62 561.765 1929.62 643.174 1935.18 650.83C1935.89 651.81 1936.21 652.849 1936.47 654.01L1852.1 654.043C1851.05 651.509 1756.03 552.889 1748.71 547.419C1759.47 545.855 1771.4 546.763 1782.33 546.75L1843.66 546.61C1844.11 546.391 1844.69 546.126 1845.12 545.854C1849.38 543.194 1859.9 534.184 1860.89 529.39C1861.17 528.847 1861.22 528.775 1861.47 528.137C1863.6 522.694 1862.88 437.824 1860.84 432.933L1860.31 430.324C1853.68 423.057 1844.65 411.934 1836.14 407.054C1835.8 406.009 1835.05 405.103 1834.44 404.192C1826.3 400.886 1789.67 403.127 1778.69 403.241ZM1734.24 568.857C1735.49 566.528 1736.45 565.649 1735.85 562.984C1730.93 560.477 1697.3 562.079 1689.11 562.129C1691.58 568.006 1688.78 600.423 1692.71 601.912C1693.42 602.18 1693.26 602.063 1694.22 601.961C1707.3 603.285 1721.23 602.409 1734.41 602.422C1735.16 601.17 1735.76 599.924 1736.02 598.475C1737.17 591.862 1738.12 574.423 1734.24 568.857ZM1744.66 452.499C1746.32 459.087 1747.04 488.625 1744.4 494.143C1744.29 494.363 1744.2 494.588 1744.09 494.806C1744.03 494.938 1743.95 495.064 1743.88 495.193C1753.79 495.203 1800.77 496.892 1806.05 494.501C1808.55 490.69 1808.54 460.296 1807.34 454.817C1807.14 453.921 1806.69 453.07 1806.27 452.263C1806.19 452.112 1806.12 451.959 1806.05 451.806C1788.88 451.886 1760.05 450.238 1744.66 452.499Z"/>
	<path fill="#c5c5c5" transform="scale(0.3125 0.3125)" d="M684.593 653.498C683.716 567.387 684.551 481.165 684.619 395.042L878.554 395.016L878.863 453.2L747.379 453.388L747.168 493.652L878.95 493.74L878.824 552.091L777.5 551.781L749.902 551.791L749.818 593.32L878.953 593.11L878.94 653.736L684.593 653.498ZM740.567 408.115C740.345 407.211 740.075 404.791 739.321 404.364C733.429 401.028 701.853 403.269 693.253 403.248C693.196 415.679 691.285 487.28 694.113 493.129L696.872 493.656C710.99 492.791 725.338 493.272 739.487 493.292L739.489 439.807C739.506 429.748 738.472 417.933 740.567 408.115Z"/>
	<path fill="#c5c5c5" transform="scale(0.3125 0.3125)" d="M932.784 452.774Q932.959 423.904 932.679 395.034Q1014.04 394.472 1095.4 394.993C1095.87 395.755 1096.28 396.561 1096.51 397.43C1098.13 403.564 1097.8 448.649 1095.18 453.049L1047.23 453.147C1047.88 454.171 1048.38 455.207 1048.58 456.418C1050.63 468.872 1048.86 494.421 1048.86 508.207C1048.85 538.693 1050.49 570.166 1048.63 600.547C1048.51 602.42 1048.06 603.729 1047.03 605.305C1047.64 606.288 1048.15 607.342 1048.37 608.487C1049.62 614.874 1049.91 649.331 1047.09 653.675C1026.43 654.25 1005.63 653.828 984.965 653.855L984.925 452.907L932.784 452.774ZM1086.12 408.841L1087.86 405.463L1087.31 403.906C1077.09 401.404 1055.46 403.261 1044.25 403.268L941.286 403.321C941.204 411.321 939.268 438.806 942.341 444.306L944.973 444.731C960.916 444.197 977.009 444.643 992.969 444.64L992.91 492.801L1038.57 492.739Q1039.15 491.529 1039.54 490.248C1041.24 484.638 1041.58 449.782 1038.88 444.912L1086.38 444.973C1086.46 444.807 1086.54 444.64 1086.62 444.477C1087.07 443.607 1087.55 442.698 1087.77 441.734C1089.25 435.137 1089.52 414.008 1086.12 408.841Z"/>
	<path fill="#c5c5c5" transform="scale(0.3125 0.3125)" d="M1428.85 654.071C1428.95 653.926 1429.05 653.785 1429.15 653.635C1430.59 651.279 1430.54 648.834 1430.62 646.159C1432.24 590.022 1430.69 533.497 1430.73 477.319L1430.73 424.263C1430.72 415.167 1431.84 404.372 1429.89 395.498C1446.7 393.047 1475.88 395.096 1494.07 395.155L1626.47 395.126C1626.98 395.868 1627.41 396.653 1627.65 397.526C1629.33 403.631 1629.63 448.057 1626.48 453.417C1581.73 454.227 1536.83 453.305 1492.07 453.369C1492.44 454.205 1492.79 455.067 1493.03 455.953C1494.65 462.046 1494.64 487.644 1491.52 493.137L1626.3 493.26C1626.86 494.112 1627.34 495.032 1627.54 496.044C1628.88 502.932 1628.88 547.433 1626.14 551.833C1593.09 552.767 1559.82 551.979 1526.75 551.976L1492.06 552.037C1492.14 552.202 1492.22 552.368 1492.31 552.531C1492.4 552.716 1492.51 552.894 1492.6 553.081C1495.11 558.264 1494.65 588.689 1492.5 594.576L1626.4 594.755C1626.91 595.572 1627.38 596.439 1627.63 597.375C1629.29 603.575 1628.9 649.59 1626.17 654.07L1428.85 654.071ZM1482.49 408.847L1483.58 405.013C1480.81 402.255 1471.9 403.133 1467.95 403.14C1458.03 403.156 1448.1 403.354 1438.19 403.252C1444.12 414.46 1436.95 489.821 1439.97 492.465C1440.46 492.89 1441.15 492.991 1441.74 493.255L1443.22 492.991C1455.97 494.157 1469.4 493.36 1482.23 493.35C1482.54 492.856 1482.66 492.701 1482.93 492.121C1484.93 487.787 1484.73 414.924 1482.49 408.847Z"/>
	<path fill="#2f2f2f" transform="scale(0.3125 0.3125)" d="M740.567 408.115C726.883 409.962 711.734 408.757 697.868 408.743C697.903 420.53 699.709 488.168 696.872 493.656L694.113 493.129C691.285 487.28 693.196 415.679 693.253 403.248C701.853 403.269 733.429 401.028 739.321 404.364C740.075 404.791 740.345 407.211 740.567 408.115Z"/>
	<path fill="#2f2f2f" transform="scale(0.3125 0.3125)" d="M1086.12 408.841C1070.17 409.577 1054 409.017 1038.03 408.975Q992.178 408.737 946.326 409.101C946.363 417.005 947.976 438.769 944.973 444.731L942.341 444.306C939.268 438.806 941.204 411.321 941.286 403.321L1044.25 403.268C1055.46 403.261 1077.09 401.404 1087.31 403.906L1087.86 405.463L1086.12 408.841Z"/>
	<path fill="#2f2f2f" transform="scale(0.3125 0.3125)" d="M1205.21 408.989C1191.15 410.755 1175.67 409.509 1161.45 409.458C1164.03 414.047 1163.79 482.778 1162.22 491.195L1160.81 492.836C1159.54 492.85 1160.02 492.965 1158.84 492.498C1153.03 490.213 1161.8 416.687 1155.7 403.338C1171.4 403.272 1190.93 401.333 1206.26 403.772L1207.05 405.488L1205.21 408.989Z"/>
	<path fill="#2f2f2f" transform="scale(0.3125 0.3125)" d="M1306.27 403.132C1314.15 403.084 1349.03 401.416 1353.87 404.067L1355.09 407.516L1354.09 409.204C1340.6 410.772 1325.78 409.394 1312.15 409.185C1315.15 414.725 1314.46 481.05 1313.23 490.857L1311.78 492.998C1310.77 493.089 1309.9 492.81 1308.92 492.584C1304.12 481.777 1312.07 414.507 1306.27 403.132Z"/>
	<path fill="#2f2f2f" transform="scale(0.3125 0.3125)" d="M1482.49 408.847C1478.03 411.356 1450.49 409.539 1443.46 409.506C1444.36 410.909 1444.91 412.232 1445.07 413.891C1446.09 424.312 1446.62 481.183 1444.9 489.468C1444.63 490.763 1443.98 491.929 1443.22 492.991L1441.74 493.255C1441.15 492.991 1440.46 492.89 1439.97 492.465C1436.95 489.821 1444.12 414.46 1438.19 403.252C1448.1 403.354 1458.03 403.156 1467.95 403.14C1471.9 403.133 1480.81 402.255 1483.58 405.013L1482.49 408.847Z"/>
	<path fill="#2f2f2f" transform="scale(0.3125 0.3125)" d="M1688.48 403.13Q1733.59 402.895 1778.69 403.241C1789.67 403.127 1826.3 400.886 1834.44 404.192C1835.05 405.103 1835.8 406.009 1836.14 407.054L1835.02 408.616C1813.47 410.075 1789.27 409.843 1767.68 408.83L1694.87 408.958C1695.79 410.594 1696.2 411.94 1696.27 413.797C1696.76 426.019 1697.28 546.015 1695.78 550.4C1695.47 551.307 1694.92 552.115 1694.35 552.869C1693.92 552.984 1693.78 553.055 1693.28 552.996C1688.93 552.478 1690.47 540.661 1690.51 537.414C1690.68 522.298 1691.86 408.582 1688.48 403.13Z"/>
	<path fill="#28E5C2" transform="scale(0.3125 0.3125)" d="M1353.87 404.067C1354.31 404.725 1355.29 405.845 1355.51 406.549C1356.39 409.435 1356.1 485.181 1355.1 489.804C1354.83 491.045 1354.32 492.042 1353.68 493.127C1339.84 493.159 1325.56 493.922 1311.78 492.998L1313.23 490.857C1314.46 481.05 1315.15 414.725 1312.15 409.185C1325.78 409.394 1340.6 410.772 1354.09 409.204L1355.09 407.516L1353.87 404.067Z"/>
	<path fill="#18B4FE" transform="scale(0.3125 0.3125)" d="M1836.14 407.054C1844.65 411.934 1853.68 423.057 1860.31 430.324L1860.84 432.933C1858.59 437.673 1843.82 452.109 1839.19 454.02L1838.58 452.294C1834.46 456.925 1829.82 462.658 1824.54 465.916C1825.01 459.27 1826.72 447.969 1823.14 442.123C1821.9 440.111 1821.42 439.866 1819.27 439.4C1818.14 440.128 1816.98 440.835 1815.87 441.593C1815.69 441.714 1815.52 441.846 1815.34 441.972L1813.33 438.746L1813.32 438.947L1812.34 437.814C1792.23 435.727 1758.09 438.346 1737.27 440.571C1744.42 440.58 1786.48 441.805 1790.72 442.939C1772.16 443.63 1753.47 443.208 1734.89 443.19C1735.76 444.797 1736.25 446.223 1736.35 448.056C1736.95 458.441 1737.42 545.765 1735.92 550.611C1735.63 551.556 1735.19 552.394 1734.65 553.211C1721.33 553.18 1707.61 553.822 1694.35 552.869C1694.92 552.115 1695.47 551.307 1695.78 550.4C1697.28 546.015 1696.76 426.019 1696.27 413.797C1696.2 411.94 1695.79 410.594 1694.87 408.958L1767.68 408.83C1789.27 409.843 1813.47 410.075 1835.02 408.616L1836.14 407.054Z"/>
	<path fill="#F94D4E" transform="scale(0.3125 0.3125)" d="M697.868 408.743C711.734 408.757 726.883 409.962 740.567 408.115C738.472 417.933 739.506 429.748 739.489 439.807L739.487 493.292C725.338 493.272 710.99 492.791 696.872 493.656C699.709 488.168 697.903 420.53 697.868 408.743Z"/>
	<path fill="#01AC90" transform="scale(0.3125 0.3125)" d="M946.326 409.101Q992.178 408.737 1038.03 408.975C1054 409.017 1070.17 409.577 1086.12 408.841C1089.52 414.008 1089.25 435.137 1087.77 441.734C1087.55 442.698 1087.07 443.607 1086.62 444.477C1086.54 444.64 1086.46 444.807 1086.38 444.973L1038.88 444.912C1041.58 449.782 1041.24 484.638 1039.54 490.248Q1039.15 491.529 1038.57 492.739L992.91 492.801L992.969 444.64C977.009 444.643 960.916 444.197 944.973 444.731C947.976 438.769 946.363 417.005 946.326 409.101Z"/>
	<path fill="#28E5C2" transform="scale(0.3125 0.3125)" d="M1161.45 409.458C1175.67 409.509 1191.15 410.755 1205.21 408.989C1206.18 410.365 1206.8 411.676 1206.97 413.369C1207.96 423.009 1208.41 481.906 1206.75 489.998C1206.53 491.09 1206 492.082 1205.38 492.997C1190.6 492.981 1175.56 493.55 1160.81 492.836L1162.22 491.195C1163.79 482.778 1164.03 414.047 1161.45 409.458Z"/>
	<path fill="#F94D4E" transform="scale(0.3125 0.3125)" d="M1443.46 409.506C1450.49 409.539 1478.03 411.356 1482.49 408.847C1484.73 414.924 1484.93 487.787 1482.93 492.121C1482.66 492.701 1482.54 492.856 1482.23 493.35C1469.4 493.36 1455.97 494.157 1443.22 492.991C1443.98 491.929 1444.63 490.763 1444.9 489.468C1446.62 481.183 1446.09 424.312 1445.07 413.891C1444.91 412.232 1444.36 410.909 1443.46 409.506Z"/>
	<path fill="#c5c5c5" transform="scale(0.3125 0.3125)" d="M134.976 444.709C148.966 437.229 162.5 428.732 176.127 420.605C183.717 422.45 209.235 440.014 218.92 445.159Q218.735 464.303 218.823 483.447C205.153 491.011 191.776 499.194 178.311 507.121C171.576 506.838 142.418 487.502 135.177 482.827Q135.484 463.766 134.976 444.709ZM165.902 435.112Q154.24 441.676 142.852 448.705C142.764 456.441 140.506 474.734 144.808 480.694C155.805 486.419 166.065 493.482 177.003 499.316C187.14 494.073 196.807 488.067 206.537 482.118C207.584 481.543 208.787 480.909 209.63 480.05C213.042 476.569 211.279 454.823 211.226 449.536L203.55 444.81C194.36 440.376 185.543 434.301 176.457 429.503C172.882 431.247 169.404 433.225 165.902 435.112Z"/>
	<path fill="#c5c5c5" transform="scale(0.3125 0.3125)" d="M330.147 507.254Q354.294 465.04 379.828 423.65C384.634 426.613 423.305 495.987 430.354 506.994C413.585 499.959 396.821 488.792 380.937 479.81Q355.455 493.372 330.147 507.254Z"/>
	<path fill="#67F6EF" transform="scale(0.3125 0.3125)" d="M142.852 448.705Q154.24 441.676 165.902 435.112C169.404 433.225 172.882 431.247 176.457 429.503C185.543 434.301 194.36 440.376 203.55 444.81L211.226 449.536C211.279 454.823 213.042 476.569 209.63 480.05C208.787 480.909 207.584 481.543 206.537 482.118C201.901 474.247 208.889 459.711 203.643 452.773C195.227 447.771 186.349 442.963 177.257 439.317C168.455 443.651 152.926 449.505 147.609 457.867C145.655 464.946 149.954 474.015 144.808 480.694C140.506 474.734 142.764 456.441 142.852 448.705Z"/>
	<path fill="#1076AB" transform="scale(0.3125 0.3125)" d="M1839.19 454.02C1843.82 452.109 1858.59 437.673 1860.84 432.933C1862.88 437.824 1863.6 522.694 1861.47 528.137C1861.22 528.775 1861.17 528.847 1860.89 529.39C1859.9 534.184 1849.38 543.194 1845.12 545.854C1844.69 546.126 1844.11 546.391 1843.66 546.61L1782.33 546.75C1771.4 546.763 1759.47 545.855 1748.71 547.419C1747.68 545.399 1746.82 545.212 1744.89 544.121C1747.28 536.923 1747.16 516.641 1744.38 509.895C1754.44 510.204 1815.8 511.531 1820.98 509.022C1821.07 508.902 1821.16 508.78 1821.25 508.662C1821.66 508.121 1822.02 507.607 1822.33 506.992C1824.13 503.381 1823.25 476.762 1821.52 472.248C1826.17 469.879 1837.6 458.761 1839.19 454.02Z"/>
	<path fill="#0DC4FE" transform="scale(0.3125 0.3125)" d="M1790.72 442.939C1786.48 441.805 1744.42 440.58 1737.27 440.571C1758.09 438.346 1792.23 435.727 1812.34 437.814L1813.32 438.947L1813.33 438.746L1815.34 441.972C1815.52 441.846 1815.69 441.714 1815.87 441.593C1816.98 440.835 1818.14 440.128 1819.27 439.4C1821.42 439.866 1821.9 440.111 1823.14 442.123C1826.72 447.969 1825.01 459.27 1824.54 465.916C1829.82 462.658 1834.46 456.925 1838.58 452.294L1839.19 454.02C1837.6 458.761 1826.17 469.879 1821.52 472.248C1823.25 476.762 1824.13 503.381 1822.33 506.992C1822.02 507.607 1821.66 508.121 1821.25 508.662C1821.16 508.78 1821.07 508.902 1820.98 509.022C1824.21 503.316 1822.59 454.935 1821.74 445.662C1819.46 443.98 1818.4 444.633 1815.7 445.027C1812.54 441.791 1795.58 443.011 1790.72 442.939Z"/>
	<path fill="#28E5C2" transform="scale(0.3125 0.3125)" d="M144.808 480.694C149.954 474.015 145.655 464.946 147.609 457.867C152.926 449.505 168.455 443.651 177.257 439.317C186.349 442.963 195.227 447.771 203.643 452.773C208.889 459.711 201.901 474.247 206.537 482.118C196.807 488.067 187.14 494.073 177.003 499.316C166.065 493.482 155.805 486.419 144.808 480.694Z"/>
	<path fill="#2f2f2f" transform="scale(0.3125 0.3125)" d="M1815.7 445.027C1818.4 444.633 1819.46 443.98 1821.74 445.662C1822.59 454.935 1824.21 503.316 1820.98 509.022C1815.8 511.531 1754.44 510.204 1744.38 509.895C1745.06 508.072 1745.88 506.433 1746.84 504.737C1757.33 502.191 1801.47 503.997 1815.04 504.014C1815.46 503.382 1815.79 502.771 1816.08 502.063C1817.97 497.477 1817.64 449.829 1815.7 445.027Z"/>
	<path fill="#2f2f2f" transform="scale(0.3125 0.3125)" d="M1743.88 495.193C1743.95 495.064 1744.03 494.938 1744.09 494.806C1744.2 494.588 1744.29 494.363 1744.4 494.143C1747.04 488.625 1746.32 459.087 1744.66 452.499C1760.05 450.238 1788.88 451.886 1806.05 451.806C1806.12 451.959 1806.19 452.112 1806.27 452.263C1806.69 453.07 1807.14 453.921 1807.34 454.817C1808.54 460.296 1808.55 490.69 1806.05 494.501C1800.77 496.892 1753.79 495.203 1743.88 495.193Z"/>
	<path fill="#28E5C2" transform="scale(0.3125 0.3125)" d="M384.196 568.574Q383.915 529.61 384.23 490.648L551.913 582.668C543.343 586.892 534.927 591.503 526.459 595.93C511.215 604.603 495.756 612.932 480.402 621.411C448.967 602.951 416.478 585.521 384.196 568.574Z"/>
	<path fill="#28E5C2" transform="scale(0.3125 0.3125)" d="M209.437 582.951C264.024 550.624 320.776 521.915 376.696 492.008C379.583 498.072 377.567 556.525 377.507 567.913C346.725 586.712 313.618 602.598 281.976 619.987C266.303 613.45 251.902 603.943 236.589 596.586C227.731 591.769 218.432 587.544 209.437 582.951Z"/>
	<path fill="#c5c5c5" transform="scale(0.3125 0.3125)" d="M598.413 581.345L620.395 557.641C626.77 561.08 637.34 575.939 642.497 581.926L621.272 606.338C613.431 598.172 605.697 590.021 598.413 581.345Z"/>
	<path fill="#c5c5c5" transform="scale(0.3125 0.3125)" d="M114.91 582.063C121.38 574.622 128.78 567.721 135.682 560.661C143.25 566.928 150.274 575.078 156.847 582.351Q146.478 593.082 135.903 603.61C128.672 596.709 121.866 589.247 114.91 582.063Z"/>
	<path fill="#2f2f2f" transform="scale(0.3125 0.3125)" d="M1734.24 568.857L1694.51 568.849C1697.57 574.234 1697.51 593.062 1695.68 599.216C1695.39 600.2 1694.8 601.128 1694.22 601.961C1693.26 602.063 1693.42 602.18 1692.71 601.912C1688.78 600.423 1691.58 568.006 1689.11 562.129C1697.3 562.079 1730.93 560.477 1735.85 562.984C1736.45 565.649 1735.49 566.528 1734.24 568.857Z"/>
	<path fill="#F94D4E" transform="scale(0.3125 0.3125)" d="M1694.51 568.849L1734.24 568.857C1738.12 574.423 1737.17 591.862 1736.02 598.475C1735.76 599.924 1735.16 601.17 1734.41 602.422C1721.23 602.409 1707.3 603.285 1694.22 601.961C1694.8 601.128 1695.39 600.2 1695.68 599.216C1697.51 593.062 1697.57 574.234 1694.51 568.849Z"/>
	<path fill="#28E5C2" transform="scale(0.3125 0.3125)" d="M290.284 625.336C300.257 618.845 311.395 613.618 321.905 608.002L380.841 576.718C411.603 592.288 441.577 609.646 471.818 626.207C456.772 633.055 442.257 641.231 427.62 648.907C412.401 656.888 396.76 664.497 382.219 673.667C371.064 669.062 360.051 662.145 349.347 656.484Q319.708 641.113 290.284 625.336Z"/>
	<path fill="#c5c5c5" transform="scale(0.3125 0.3125)" d="M488.55 626.632C508.505 613.357 531.546 603.435 552.596 591.89C555.185 595.523 553.846 651.295 553.85 661.437L513.935 640.088Q501.204 633.432 488.55 626.632Z"/>
	<path fill="#c5c5c5" transform="scale(0.3125 0.3125)" d="M209.875 659.764Q210.169 626.356 209.57 592.953C230.967 601.798 252.175 614.818 272.665 625.73Q262.44 631.233 252.334 636.95C238.314 644.731 224.368 652.897 209.875 659.764Z"/>
	<path fill="#c5c5c5" transform="scale(0.3125 0.3125)" d="M216.261 666.071C236.606 653.206 258.608 643.32 279.101 630.735C285.374 630.649 364.659 674.272 376.159 680.958L376.052 752.674C362.264 745.586 348.655 738.107 334.911 730.924C295.533 709.269 254.641 689.385 216.261 666.071Z"/>
	<path fill="#c5c5c5" transform="scale(0.3125 0.3125)" d="M385.208 681.548C414.96 663.557 447.051 648.441 477.683 631.92C483.213 631.746 537.484 662.45 546.211 667.135Q489.102 698.224 431.598 728.574Q408.656 741.548 385.083 753.338L385.208 681.548Z"/>
</svg>
